<svg width="17px" height="17px" xmlns="http://www.w3.org/2000/svg" xmlns:xlink="http://www.w3.org/1999/xlink" viewBox="0 0 19 20" version="1.1">
    <g stroke="none" stroke-width="1" fill="none" fill-rule="evenodd">
        <g transform="translate(-715.000000, -231.000000)" fill="#FFFFFF">
            <g transform="translate(715.000000, 231.000000)">
                <path d="M18.9897325,19.2033221 L19,19.2335692 C19,19.6570286 18.6560389,20 18.2350716,20 L12.5982167,20 C12.1721156,20 11.8281546,19.6570286 11.8281546,19.2335692 C11.8281546,18.8101097 12.1721156,18.4671383 12.5982167,18.4671383 L16.2791138,18.4671383 L11.1607674,13.3958782 C10.8270738,13.0672614 10.8270738,12.5340921 11.1607674,12.2054752 C11.4893272,11.8768584 12.023237,11.8768584 12.3517968,12.2054752 L17.4650095,17.2695581 L17.4650095,13.551215 C17.4650095,13.1277556 17.8089705,12.7847842 18.2299379,12.7847842 C18.6560389,12.7847842 19,13.1277556 19,13.551215 L19,19.1807649 L18.9897325,19.2033221 Z M0.0102674953,0.796677945 L0,0.766430842 C0,0.342971393 0.343961092,0 0.764928398,0 L6.4017833,0 C6.82788436,0 7.17184545,0.342971393 7.17184545,0.766430842 C7.17184545,1.18989029 6.82788436,1.53286168 6.4017833,1.53286168 L2.72088625,1.53286168 L7.84436639,6.60412181 C8.17292624,6.93273864 8.17292624,7.46590793 7.84436639,7.79452476 C7.51067279,8.1231416 6.98189678,8.1231416 6.64820319,7.79452476 L1.53499054,2.73044192 L1.53499054,6.44878499 C1.53499054,6.87224444 1.19102945,7.21521583 0.770062145,7.21521583 C0.343961092,7.21521583 0,6.87224444 0,6.44878499 L0,0.819235107 L0.0102674953,0.796677945 Z"/>
            </g>
        </g>
    </g>
</svg>