<svg width="17px" height="17px" xmlns="http://www.w3.org/2000/svg" xmlns:xlink="http://www.w3.org/1999/xlink" viewBox="0 0 19 20" version="1.1">
    <g stroke="none" stroke-width="1" fill="none" fill-rule="evenodd">
        <g transform="translate(-715.000000, -383.000000)" fill="#FFFFFF">
            <g transform="translate(715.000000, 383.000000)">
                <path d="M11.0282581,12.8192848 L11.0155923,12.7893032 C11.0155923,12.3695611 11.3550363,12.0296005 11.7730085,12.0296005 L17.3368509,12.0296005 C17.754823,12.0296005 18.094267,12.3695611 18.094267,12.7893032 C18.094267,13.2090453 17.754823,13.5490059 17.3368509,13.5490059 L13.7037864,13.5490059 L18.7564362,18.575748 C19.0811879,18.90148 19.0811879,19.4299689 18.7564362,19.7557009 C18.4316846,20.081433 17.9047863,20.081433 17.579528,19.7557009 L12.5339711,14.7360732 L12.5339711,18.4217748 C12.5339711,18.8415169 12.194527,19.1814775 11.7765549,19.1814775 C11.3580761,19.1814775 11.0191387,18.8415169 11.0191387,18.4217748 L11.0191387,12.8416439 L11.0282581,12.8192848 Z M7.97174188,7.18071524 L7.98440771,7.21069682 C7.98440771,7.63043893 7.64496367,7.97039954 7.22699153,7.97039954 L1.66314912,7.97039954 C1.24517699,7.97039954 0.905732951,7.63043893 0.905732951,7.21069682 C0.905732951,6.79095471 1.24517699,6.45099409 1.66314912,6.45099409 L5.29621359,6.45099409 L0.243563762,1.42425205 C-0.0811879208,1.09851998 -0.0811879208,0.570031125 0.243563762,0.244299054 C0.568315446,-0.0814330178 1.09521365,-0.0814330178 1.42047197,0.244299054 L6.46602893,5.26392682 L6.46602893,1.57822524 C6.46602893,1.15848314 6.80547297,0.818522518 7.2234451,0.818522518 C7.64192387,0.818522518 7.98086128,1.15848314 7.98086128,1.57822524 L7.98086128,7.15835609 L7.97174188,7.18071524 Z"/>
            </g>
        </g>
    </g>
</svg>