<svg width="25px" height="17px" xmlns="http://www.w3.org/2000/svg" xmlns:xlink="http://www.w3.org/1999/xlink" viewBox="0 0 25 19" version="1.1" fill="#2692ff">
<g stroke="none" class="path" stroke-width="1" fill-rule="evenodd">
                        <g transform="translate(-854.000000, -545.000000)">
                            <g transform="translate(146.000000, 543.000000)">
                                <g transform="translate(708.000000, 2.000000)">
                                    <path d="M18.5777497,3.87020852 C18.4917826,3.78534285 18.4007585,3.70730546 18.3097345,3.6297558 L18.0670038,3.43612552 L18.0467762,3.45563487 C17.783818,3.33809104 17.4500632,3.39320495 17.2427307,3.59902858 C17.0303413,3.80924181 16.9747155,4.11700178 17.091024,4.37550064 L17.0101138,4.4530503 L17.2174463,4.62863444 C17.323641,4.71496331 17.4247788,4.80226764 17.5208597,4.89786345 C19.528445,6.87659911 19.528445,10.0966171 17.5208597,12.074865 C17.4247788,12.1728995 17.3185841,12.2621547 17.2123894,12.3504345 L17,12.5279696 L17.1314791,12.6503908 C17.0657396,12.8869416 17.1264223,13.1425141 17.3084703,13.3205369 C17.4905183,13.5024616 17.7737042,13.5648915 18.0164349,13.4868541 L18.0922882,13.5580632 L18.335019,13.3468745 C18.4209861,13.2771286 18.5018963,13.2064072 18.5777497,13.1303207 C19.8318584,11.8939158 20.5195954,10.2492777 20.5195954,8.50026463 C20.5195954,6.75125155 19.8318584,5.10710121 18.5777497,3.87020852 Z M21.7231353,0.580444643 C21.6270544,0.487775238 21.5309735,0.401934105 21.4298357,0.316580706 L21.2983565,0.199036882 L21.091024,0.0702751825 L21.0859671,0.0756402533 C20.8280657,-0.0584865171 20.4791403,-0.0121518146 20.2667509,0.198061415 C20.1352718,0.327798581 20.0644753,0.499968581 20.0644753,0.683356456 C20.0644753,0.801875748 20.0948167,0.916005436 20.1504425,1.01696631 L20.0847029,1.08232263 L20.4083439,1.36618365 C20.494311,1.43983144 20.5802781,1.51250376 20.6611884,1.59249209 C24.4437421,5.33097098 24.4437421,11.4139858 20.6611884,15.1524647 C20.4791403,15.3299998 20.2920354,15.4904642 20.0998736,15.6504408 L19.9077118,15.8143194 L19.9785082,15.8957709 C19.9127686,16.0079496 19.8773704,16.1357359 19.8773704,16.2688872 C19.8773704,16.4639807 19.9532238,16.6478563 20.0948167,16.7858849 C20.2313527,16.9234258 20.4184576,17 20.6156764,17 C20.8128951,17 21,16.9234258 21.1415929,16.7863726 C21.1972187,16.7293078 21.2326169,16.6678533 21.2427307,16.6522459 C21.4045512,16.512754 21.5663717,16.3722867 21.7231353,16.2191383 C26.0922882,11.9075723 26.0922882,4.89249838 21.7231353,0.580444643 Z" id="形状-20"></path>
                                    <path d="M12.915,19 L12.915,19 C12.385,19 11.795,18.8202751 11.115,18.4505554 L11.04,18.4048539 L6.015,14.8755709 L3.92,14.8755709 C1.76,14.8755709 0,13.0680522 0,10.8466528 L0,8.12664523 C0,5.9047323 1.76,4.09721359 3.92,4.09721359 L5.925,4.09721359 L10.61,0.734817978 C11.43,0.240317829 12.145,0 12.785,0 C14.285,0 14.985,1.32020756 15,2.54644469 L15,16.1033486 C15,17.1570498 14.755,17.9457852 14.27,18.4449069 C13.92,18.8079511 13.45,19 12.915,19 Z M11.85,17.1082673 C12.395,17.3978811 12.73,17.4600146 12.915,17.4600146 C13.085,17.4600146 13.16,17.4081511 13.21,17.3568012 C13.39,17.1688603 13.5,16.7010621 13.5,16.1048891 L13.5,2.55568768 C13.495,2.32461285 13.435,1.54049891 12.785,1.54049891 C12.54,1.54049891 12.095,1.62882084 11.39,2.04886354 L6.4,5.63719899 L3.92,5.63719899 C2.585,5.63719899 1.5,6.7540607 1.5,8.12664523 L1.5,10.8466528 C1.5,12.2187238 2.585,13.3355855 3.92,13.3355855 L6.475,13.3355855 L11.85,17.1082673 Z"></path>
                                </g>
                            </g>
                        </g>
                    </g>
                   </svg>